<?xml version="1.0" encoding="UTF-8"?>
<svg id="Layer_2" data-name="Layer 2" xmlns="http://www.w3.org/2000/svg" viewBox="0 0 714.43 668.02">
  <defs>
    <style>
      .cls-1 {
        fill: #8C8A80;
      }

      .cls-2 {
        fill: #fdfdfd;
      }
    </style>
  </defs>
  <g id="die_line" data-name="die line">
    <g>
      <path class="cls-2" d="M153.86,551.86h149.13c106.52,0,159.18-13.8,190.3,0,76.57,33.95,104.75,123.24,120.86,115.71,15.71-7.33-20.63-87.76,12.86-115.71,17.19-14.35,38.95-2.73,61.82-25.61,15.82-15.82,25.61-37.68,25.61-61.82V119.86c0-48.29-39.14-87.43-87.43-87.43H153.86c-48.29,0-87.43,39.14-87.43,87.43v344.57c0,48.29,39.14,87.43,87.43,87.43Z"/>
      <g>
        <path class="cls-1" d="M404.91,344.75c-5.22,0-9.51,1.62-12.87,4.86-3.35,3.24-5.86,8.51-7.49,15.82-1.64,7.31-2.46,16.99-2.46,29.05,0,16.58,1.64,28.86,4.92,36.84,3.28,7.99,8.8,11.98,16.56,11.98,5.22,0,9.51-1.58,12.86-4.75,3.35-3.17,5.86-8.33,7.5-15.49,1.64-7.16,2.46-16.84,2.46-29.05,0-16.57-1.64-28.93-4.92-37.07-3.28-8.14-8.8-12.21-16.56-12.21Z"/>
        <path class="cls-1" d="M404.91,73.51c-5.22,0-9.51,1.62-12.87,4.86-3.35,3.24-5.86,8.51-7.49,15.82-1.64,7.31-2.46,16.99-2.46,29.05,0,16.58,1.64,28.86,4.92,36.84,3.28,7.99,8.8,11.98,16.56,11.98,5.22,0,9.51-1.58,12.86-4.75,3.35-3.17,5.86-8.33,7.5-15.49,1.64-7.16,2.46-16.84,2.46-29.05,0-16.57-1.64-28.93-4.92-37.07-3.28-8.14-8.8-12.21-16.56-12.21Z"/>
        <path class="cls-1" d="M131.08,73.51c-5.22,0-9.51,1.62-12.87,4.86-3.35,3.24-5.86,8.51-7.49,15.82-1.64,7.31-2.46,16.99-2.46,29.05,0,16.58,1.64,28.86,4.92,36.84,3.28,7.99,8.8,11.98,16.56,11.98,5.22,0,9.51-1.58,12.86-4.75,3.35-3.17,5.86-8.33,7.5-15.49,1.64-7.16,2.46-16.84,2.46-29.05,0-16.57-1.64-28.93-4.92-37.07-3.29-8.14-8.8-12.21-16.56-12.21Z"/>
        <path class="cls-1" d="M541.83,344.75c-5.22,0-9.51,1.62-12.87,4.86-3.35,3.24-5.86,8.51-7.49,15.82-1.64,7.31-2.46,16.99-2.46,29.05,0,16.58,1.64,28.86,4.92,36.84,3.28,7.99,8.8,11.98,16.56,11.98,5.22,0,9.51-1.58,12.86-4.75,3.35-3.17,5.86-8.33,7.5-15.49,1.64-7.16,2.46-16.84,2.46-29.05,0-16.57-1.64-28.93-4.92-37.07-3.28-8.14-8.8-12.21-16.56-12.21Z"/>
        <path class="cls-1" d="M560.57,0H87.43C39.14,0,0,39.14,0,87.43v344.57c0,24.14,9.79,46,25.61,61.82,22.87,22.87,44.63,11.25,61.82,25.61,33.48,27.95-2.85,108.38,12.86,115.71,16.11,7.52,44.29-81.77,120.86-115.71,31.11-13.8,83.78,0,190.3,0h149.13c48.29,0,87.43-39.14,87.43-87.43V87.43c0-48.29-39.14-87.43-87.43-87.43ZM179.46,459.06c0,4.53-3.67,8.21-8.21,8.21h-77.62c-4.53,0-8.21-3.67-8.21-8.21v-9.36c0-4.53,3.67-8.21,8.21-8.21h19.3c4.53,0,8.21-3.67,8.21-8.21v-66.79c0-6.02-6.26-9.99-11.7-7.42l-9.41,4.43c-3.6,1.7-7.91.56-10.2-2.69l-3.73-5.29c-2.61-3.71-1.73-8.83,1.98-11.44l30.95-21.8c1.38-.97,3.03-1.5,4.73-1.5h20.39c4.53,0,8.21,3.67,8.21,8.21v104.29c0,4.53,3.67,8.21,8.21,8.21h10.71c4.53,0,8.21,3.67,8.21,8.21v9.36ZM168.95,182.46c-10.93,11.15-24.22,16.73-39.9,16.73-11,0-20.5-2.75-28.48-8.25-7.99-5.5-14.17-13.94-18.53-25.31-4.37-11.38-6.56-25.66-6.56-42.84,0-19.59,2.79-35.04,8.36-46.34,5.57-11.3,12.58-19.14,21.02-23.51,8.44-4.37,17.4-6.55,26.9-6.55,16.87,0,30.02,6.14,39.44,18.42,9.42,12.28,14.13,31.76,14.13,58.43,0,28.33-5.46,48.07-16.39,59.22ZM498.82,72.85l30.95-21.8c1.38-.97,3.03-1.5,4.73-1.5h20.39c4.53,0,8.21,3.67,8.21,8.21v104.29c0,4.53,3.67,8.21,8.21,8.21h10.71c4.53,0,8.21,3.67,8.21,8.21v9.36c0,4.53-3.67,8.21-8.21,8.21h-77.62c-4.53,0-8.21-3.67-8.21-8.21v-9.36c0-4.53,3.67-8.21,8.21-8.21h19.3c4.53,0,8.21-3.67,8.21-8.21v-66.79c0-6.02-6.26-9.99-11.7-7.42l-9.41,4.43c-3.6,1.7-7.91.56-10.2-2.69l-3.73-5.29c-2.61-3.71-1.73-8.83,1.98-11.44ZM316.38,459.06c0,4.53-3.67,8.21-8.21,8.21h-77.62c-4.53,0-8.21-3.67-8.21-8.21v-9.36c0-4.53,3.67-8.21,8.21-8.21h19.3c4.53,0,8.21-3.67,8.21-8.21v-66.79c0-6.02-6.26-9.99-11.7-7.42l-9.41,4.43c-3.6,1.7-7.91.56-10.2-2.69l-3.73-5.29c-2.61-3.71-1.73-8.83,1.98-11.44l30.95-21.8c1.38-.97,3.03-1.5,4.73-1.5h20.39c4.53,0,8.21,3.67,8.21,8.21v104.29c0,4.53,3.67,8.21,8.21,8.21h10.71c4.53,0,8.21,3.67,8.21,8.21v9.36ZM316.38,187.81c0,4.53-3.67,8.21-8.21,8.21h-77.62c-4.53,0-8.21-3.67-8.21-8.21v-9.36c0-4.53,3.67-8.21,8.21-8.21h19.3c4.53,0,8.21-3.67,8.21-8.21v-66.79c0-6.02-6.26-9.99-11.7-7.42l-9.41,4.43c-3.6,1.7-7.91.56-10.2-2.69l-3.73-5.29c-2.61-3.71-1.73-8.83,1.98-11.44l30.95-21.8c1.38-.97,3.03-1.5,4.73-1.5h20.39c4.53,0,8.21,3.67,8.21,8.21v104.29c0,4.53,3.67,8.21,8.21,8.21h10.71c4.53,0,8.21,3.67,8.21,8.21v9.36ZM442.78,453.7c-10.93,11.15-24.22,16.73-39.9,16.73-11,0-20.5-2.75-28.48-8.25-7.99-5.5-14.17-13.94-18.53-25.31-4.37-11.38-6.56-25.66-6.56-42.84,0-19.59,2.79-35.04,8.36-46.34,5.57-11.3,12.58-19.14,21.02-23.51,8.44-4.37,17.4-6.55,26.9-6.55,16.87,0,30.02,6.14,39.44,18.42,9.42,12.28,14.13,31.76,14.13,58.43,0,28.33-5.46,48.07-16.39,59.22ZM442.78,182.46c-10.93,11.15-24.22,16.73-39.9,16.73-11,0-20.5-2.75-28.48-8.25-7.99-5.5-14.17-13.94-18.53-25.31-4.37-11.38-6.56-25.66-6.56-42.84,0-19.59,2.79-35.04,8.36-46.34,5.57-11.3,12.58-19.14,21.02-23.51,8.44-4.37,17.4-6.55,26.9-6.55,16.87,0,30.02,6.14,39.44,18.42,9.42,12.28,14.13,31.76,14.13,58.43,0,28.33-5.46,48.07-16.39,59.22ZM579.7,453.7c-10.93,11.15-24.22,16.73-39.9,16.73-11,0-20.5-2.75-28.48-8.25-7.99-5.5-14.17-13.94-18.53-25.31-4.37-11.38-6.56-25.66-6.56-42.84,0-19.59,2.79-35.04,8.36-46.34,5.57-11.3,12.58-19.14,21.02-23.51,8.44-4.37,17.4-6.55,26.9-6.55,16.87,0,30.02,6.14,39.44,18.42,9.42,12.28,14.13,31.76,14.13,58.43,0,28.33-5.46,48.07-16.39,59.22Z"/>
      </g>
    </g>
  </g>
</svg>